<mxfile host="Electron" agent="Mozilla/5.0 (Windows NT 10.0; Win64; x64) AppleWebKit/537.36 (KHTML, like Gecko) draw.io/25.0.1 Chrome/128.0.6613.186 Electron/32.2.6 Safari/537.36" version="25.0.1">
  <diagram name="Pagina-1" id="lhB0eF5Bq-AWkeBl7JyV">
    <mxGraphModel dx="1098" dy="2157" grid="1" gridSize="10" guides="1" tooltips="1" connect="1" arrows="1" fold="1" page="1" pageScale="1" pageWidth="827" pageHeight="1169" math="0" shadow="0">
      <root>
        <mxCell id="0" />
        <mxCell id="1" parent="0" />
        <mxCell id="zuxBCQ1KaA-TVjjdggDC-1" value="&lt;font style=&quot;font-size: 18px;&quot;&gt;Missione&lt;/font&gt;" style="whiteSpace=wrap;html=1;align=center;" parent="1" vertex="1">
          <mxGeometry x="479.4" y="161.75" width="120" height="60" as="geometry" />
        </mxCell>
        <mxCell id="zuxBCQ1KaA-TVjjdggDC-8" value="&lt;font style=&quot;font-size: 18px;&quot;&gt;Equipaggio&lt;/font&gt;" style="whiteSpace=wrap;html=1;align=center;" parent="1" vertex="1">
          <mxGeometry x="40" y="240" width="120" height="60" as="geometry" />
        </mxCell>
        <mxCell id="zuxBCQ1KaA-TVjjdggDC-9" value="&lt;font style=&quot;font-size: 18px;&quot;&gt;Intervento&lt;/font&gt;" style="whiteSpace=wrap;html=1;align=center;" parent="1" vertex="1">
          <mxGeometry x="210" y="500" width="120" height="60" as="geometry" />
        </mxCell>
        <mxCell id="zuxBCQ1KaA-TVjjdggDC-10" value="&lt;font style=&quot;font-size: 18px;&quot;&gt;Anomalia&lt;/font&gt;" style="whiteSpace=wrap;html=1;align=center;" parent="1" vertex="1">
          <mxGeometry x="649.4" y="500" width="120" height="60" as="geometry" />
        </mxCell>
        <mxCell id="zuxBCQ1KaA-TVjjdggDC-11" value="&lt;font style=&quot;font-size: 18px;&quot;&gt;Sensore&lt;/font&gt;" style="whiteSpace=wrap;html=1;align=center;" parent="1" vertex="1">
          <mxGeometry x="850" y="295" width="120" height="60" as="geometry" />
        </mxCell>
        <mxCell id="zuxBCQ1KaA-TVjjdggDC-12" value="&lt;font style=&quot;font-size: 18px;&quot;&gt;Rivelazione&lt;/font&gt;" style="whiteSpace=wrap;html=1;align=center;" parent="1" vertex="1">
          <mxGeometry x="660" y="-41.25" width="120" height="60" as="geometry" />
        </mxCell>
        <mxCell id="zuxBCQ1KaA-TVjjdggDC-13" value="&lt;font style=&quot;font-size: 18px;&quot;&gt;Robot&lt;/font&gt;" style="whiteSpace=wrap;html=1;align=center;" parent="1" vertex="1">
          <mxGeometry x="40" y="-41" width="120" height="60" as="geometry" />
        </mxCell>
        <mxCell id="RYKOZWi8mXVpuBgU3QgM-1" value="&lt;font style=&quot;font-size: 18px;&quot;&gt;Report&lt;/font&gt;" style="whiteSpace=wrap;html=1;align=center;" parent="1" vertex="1">
          <mxGeometry x="200" y="379.32" width="120" height="60" as="geometry" />
        </mxCell>
        <mxCell id="RYKOZWi8mXVpuBgU3QgM-15" value="effettua" style="shape=rhombus;perimeter=rhombusPerimeter;whiteSpace=wrap;html=1;align=center;" parent="1" vertex="1">
          <mxGeometry x="47.5" y="403" width="95" height="40" as="geometry" />
        </mxCell>
        <mxCell id="RYKOZWi8mXVpuBgU3QgM-16" value="" style="endArrow=none;html=1;rounded=0;entryX=0.5;entryY=0;entryDx=0;entryDy=0;exitX=0.459;exitY=0.987;exitDx=0;exitDy=0;exitPerimeter=0;" parent="1" source="zuxBCQ1KaA-TVjjdggDC-8" target="RYKOZWi8mXVpuBgU3QgM-15" edge="1">
          <mxGeometry width="50" height="50" relative="1" as="geometry">
            <mxPoint x="80" y="470" as="sourcePoint" />
            <mxPoint x="130" y="420" as="targetPoint" />
          </mxGeometry>
        </mxCell>
        <mxCell id="RYKOZWi8mXVpuBgU3QgM-17" value="" style="endArrow=none;html=1;rounded=0;exitX=0.459;exitY=0.987;exitDx=0;exitDy=0;exitPerimeter=0;" parent="1" edge="1">
          <mxGeometry width="50" height="50" relative="1" as="geometry">
            <mxPoint x="94.89" y="443" as="sourcePoint" />
            <mxPoint x="95" y="530" as="targetPoint" />
          </mxGeometry>
        </mxCell>
        <mxCell id="RYKOZWi8mXVpuBgU3QgM-18" value="" style="endArrow=none;html=1;rounded=0;entryX=0;entryY=0.5;entryDx=0;entryDy=0;" parent="1" target="zuxBCQ1KaA-TVjjdggDC-9" edge="1">
          <mxGeometry width="50" height="50" relative="1" as="geometry">
            <mxPoint x="95" y="530" as="sourcePoint" />
            <mxPoint x="145" y="480" as="targetPoint" />
          </mxGeometry>
        </mxCell>
        <mxCell id="RYKOZWi8mXVpuBgU3QgM-22" value="risolve" style="shape=rhombus;perimeter=rhombusPerimeter;whiteSpace=wrap;html=1;align=center;" parent="1" vertex="1">
          <mxGeometry x="433.79" y="510" width="95" height="40" as="geometry" />
        </mxCell>
        <mxCell id="RYKOZWi8mXVpuBgU3QgM-23" value="" style="endArrow=none;html=1;rounded=0;exitX=1;exitY=0.5;exitDx=0;exitDy=0;entryX=0;entryY=0.5;entryDx=0;entryDy=0;" parent="1" source="zuxBCQ1KaA-TVjjdggDC-9" target="RYKOZWi8mXVpuBgU3QgM-22" edge="1">
          <mxGeometry width="50" height="50" relative="1" as="geometry">
            <mxPoint x="400" y="550" as="sourcePoint" />
            <mxPoint x="450" y="500" as="targetPoint" />
          </mxGeometry>
        </mxCell>
        <mxCell id="RYKOZWi8mXVpuBgU3QgM-24" value="" style="endArrow=none;html=1;rounded=0;exitX=1;exitY=0.5;exitDx=0;exitDy=0;entryX=0;entryY=0.5;entryDx=0;entryDy=0;" parent="1" target="zuxBCQ1KaA-TVjjdggDC-10" edge="1">
          <mxGeometry width="50" height="50" relative="1" as="geometry">
            <mxPoint x="528.79" y="529.89" as="sourcePoint" />
            <mxPoint x="632.79" y="529.89" as="targetPoint" />
            <Array as="points">
              <mxPoint x="578.79" y="529.89" />
            </Array>
          </mxGeometry>
        </mxCell>
        <mxCell id="RYKOZWi8mXVpuBgU3QgM-29" value="riscontra" style="shape=rhombus;perimeter=rhombusPerimeter;whiteSpace=wrap;html=1;align=center;" parent="1" vertex="1">
          <mxGeometry x="862.5" y="417.32" width="95" height="40" as="geometry" />
        </mxCell>
        <mxCell id="RYKOZWi8mXVpuBgU3QgM-30" value="" style="endArrow=none;html=1;rounded=0;exitX=0.5;exitY=0;exitDx=0;exitDy=0;" parent="1" source="RYKOZWi8mXVpuBgU3QgM-29" edge="1">
          <mxGeometry width="50" height="50" relative="1" as="geometry">
            <mxPoint x="860" y="405" as="sourcePoint" />
            <mxPoint x="910" y="355" as="targetPoint" />
          </mxGeometry>
        </mxCell>
        <mxCell id="RYKOZWi8mXVpuBgU3QgM-31" value="" style="endArrow=none;html=1;rounded=0;" parent="1" edge="1">
          <mxGeometry width="50" height="50" relative="1" as="geometry">
            <mxPoint x="770" y="530" as="sourcePoint" />
            <mxPoint x="910" y="530" as="targetPoint" />
          </mxGeometry>
        </mxCell>
        <mxCell id="RYKOZWi8mXVpuBgU3QgM-32" value="" style="endArrow=none;html=1;rounded=0;entryX=0.5;entryY=1;entryDx=0;entryDy=0;" parent="1" target="RYKOZWi8mXVpuBgU3QgM-29" edge="1">
          <mxGeometry width="50" height="50" relative="1" as="geometry">
            <mxPoint x="910" y="530" as="sourcePoint" />
            <mxPoint x="960" y="480" as="targetPoint" />
          </mxGeometry>
        </mxCell>
        <mxCell id="RYKOZWi8mXVpuBgU3QgM-35" value="esegue" style="shape=rhombus;perimeter=rhombusPerimeter;whiteSpace=wrap;html=1;align=center;" parent="1" vertex="1">
          <mxGeometry x="832.5" y="82.25" width="95" height="40" as="geometry" />
        </mxCell>
        <mxCell id="RYKOZWi8mXVpuBgU3QgM-36" value="" style="endArrow=none;html=1;rounded=0;exitX=0.246;exitY=0.038;exitDx=0;exitDy=0;exitPerimeter=0;entryX=0.5;entryY=1;entryDx=0;entryDy=0;" parent="1" source="zuxBCQ1KaA-TVjjdggDC-11" target="RYKOZWi8mXVpuBgU3QgM-35" edge="1">
          <mxGeometry width="50" height="50" relative="1" as="geometry">
            <mxPoint x="830" y="170" as="sourcePoint" />
            <mxPoint x="880" y="120" as="targetPoint" />
          </mxGeometry>
        </mxCell>
        <mxCell id="RYKOZWi8mXVpuBgU3QgM-37" value="" style="endArrow=none;html=1;rounded=0;exitX=0.5;exitY=0;exitDx=0;exitDy=0;" parent="1" source="RYKOZWi8mXVpuBgU3QgM-35" edge="1">
          <mxGeometry width="50" height="50" relative="1" as="geometry">
            <mxPoint x="880" y="80" as="sourcePoint" />
            <mxPoint x="880" y="-10" as="targetPoint" />
          </mxGeometry>
        </mxCell>
        <mxCell id="RYKOZWi8mXVpuBgU3QgM-38" value="" style="endArrow=none;html=1;rounded=0;exitX=0.998;exitY=0.518;exitDx=0;exitDy=0;exitPerimeter=0;" parent="1" source="zuxBCQ1KaA-TVjjdggDC-12" edge="1">
          <mxGeometry width="50" height="50" relative="1" as="geometry">
            <mxPoint x="830" y="40" as="sourcePoint" />
            <mxPoint x="880" y="-10" as="targetPoint" />
          </mxGeometry>
        </mxCell>
        <mxCell id="RYKOZWi8mXVpuBgU3QgM-42" value="impiega" style="shape=rhombus;perimeter=rhombusPerimeter;whiteSpace=wrap;html=1;align=center;" parent="1" vertex="1">
          <mxGeometry x="688.75" y="169.75" width="95" height="40" as="geometry" />
        </mxCell>
        <mxCell id="RYKOZWi8mXVpuBgU3QgM-43" value="" style="endArrow=none;html=1;rounded=0;entryX=0;entryY=0.5;entryDx=0;entryDy=0;" parent="1" target="RYKOZWi8mXVpuBgU3QgM-42" edge="1">
          <mxGeometry width="50" height="50" relative="1" as="geometry">
            <mxPoint x="600" y="190" as="sourcePoint" />
            <mxPoint x="650" y="140" as="targetPoint" />
          </mxGeometry>
        </mxCell>
        <mxCell id="RYKOZWi8mXVpuBgU3QgM-44" value="" style="endArrow=none;html=1;rounded=0;exitX=0.99;exitY=0.509;exitDx=0;exitDy=0;exitPerimeter=0;" parent="1" source="RYKOZWi8mXVpuBgU3QgM-42" edge="1">
          <mxGeometry width="50" height="50" relative="1" as="geometry">
            <mxPoint x="790" y="190" as="sourcePoint" />
            <mxPoint x="810" y="190" as="targetPoint" />
          </mxGeometry>
        </mxCell>
        <mxCell id="RYKOZWi8mXVpuBgU3QgM-45" value="" style="endArrow=none;html=1;rounded=0;" parent="1" edge="1">
          <mxGeometry width="50" height="50" relative="1" as="geometry">
            <mxPoint x="810" y="320" as="sourcePoint" />
            <mxPoint x="810.03" y="190" as="targetPoint" />
          </mxGeometry>
        </mxCell>
        <mxCell id="RYKOZWi8mXVpuBgU3QgM-46" value="" style="endArrow=none;html=1;rounded=0;entryX=0.003;entryY=0.416;entryDx=0;entryDy=0;entryPerimeter=0;" parent="1" target="zuxBCQ1KaA-TVjjdggDC-11" edge="1">
          <mxGeometry width="50" height="50" relative="1" as="geometry">
            <mxPoint x="810" y="320" as="sourcePoint" />
            <mxPoint x="860" y="270" as="targetPoint" />
          </mxGeometry>
        </mxCell>
        <mxCell id="RYKOZWi8mXVpuBgU3QgM-49" value="adopera" style="shape=rhombus;perimeter=rhombusPerimeter;whiteSpace=wrap;html=1;align=center;" parent="1" vertex="1">
          <mxGeometry x="270" y="-30.25" width="95" height="40" as="geometry" />
        </mxCell>
        <mxCell id="RYKOZWi8mXVpuBgU3QgM-50" value="" style="endArrow=none;html=1;rounded=0;entryX=0;entryY=0.5;entryDx=0;entryDy=0;" parent="1" target="RYKOZWi8mXVpuBgU3QgM-49" edge="1">
          <mxGeometry width="50" height="50" relative="1" as="geometry">
            <mxPoint x="160" y="-10" as="sourcePoint" />
            <mxPoint x="210" y="-60" as="targetPoint" />
          </mxGeometry>
        </mxCell>
        <mxCell id="RYKOZWi8mXVpuBgU3QgM-51" value="" style="endArrow=none;html=1;rounded=0;" parent="1" edge="1">
          <mxGeometry width="50" height="50" relative="1" as="geometry">
            <mxPoint x="365" y="-10.03" as="sourcePoint" />
            <mxPoint x="490" y="-10" as="targetPoint" />
          </mxGeometry>
        </mxCell>
        <mxCell id="RYKOZWi8mXVpuBgU3QgM-53" value="" style="endArrow=none;html=1;rounded=0;exitX=0.088;exitY=-0.002;exitDx=0;exitDy=0;exitPerimeter=0;" parent="1" source="zuxBCQ1KaA-TVjjdggDC-1" edge="1">
          <mxGeometry width="50" height="50" relative="1" as="geometry">
            <mxPoint x="490" y="160" as="sourcePoint" />
            <mxPoint x="490" y="-10" as="targetPoint" />
          </mxGeometry>
        </mxCell>
        <mxCell id="RYKOZWi8mXVpuBgU3QgM-56" value="" style="endArrow=none;html=1;rounded=0;exitX=0.916;exitY=0.002;exitDx=0;exitDy=0;exitPerimeter=0;" parent="1" source="zuxBCQ1KaA-TVjjdggDC-8" edge="1">
          <mxGeometry width="50" height="50" relative="1" as="geometry">
            <mxPoint x="149" y="240" as="sourcePoint" />
            <mxPoint x="150" y="180" as="targetPoint" />
          </mxGeometry>
        </mxCell>
        <mxCell id="RYKOZWi8mXVpuBgU3QgM-57" value="partecipa" style="shape=rhombus;perimeter=rhombusPerimeter;whiteSpace=wrap;html=1;align=center;" parent="1" vertex="1">
          <mxGeometry x="240" y="160.5" width="95" height="40" as="geometry" />
        </mxCell>
        <mxCell id="RYKOZWi8mXVpuBgU3QgM-58" value="" style="endArrow=none;html=1;rounded=0;entryX=0;entryY=0.5;entryDx=0;entryDy=0;" parent="1" target="RYKOZWi8mXVpuBgU3QgM-57" edge="1">
          <mxGeometry width="50" height="50" relative="1" as="geometry">
            <mxPoint x="150" y="180" as="sourcePoint" />
            <mxPoint x="200" y="130" as="targetPoint" />
          </mxGeometry>
        </mxCell>
        <mxCell id="RYKOZWi8mXVpuBgU3QgM-59" value="" style="endArrow=none;html=1;rounded=0;exitX=1;exitY=0.5;exitDx=0;exitDy=0;entryX=0;entryY=0.313;entryDx=0;entryDy=0;entryPerimeter=0;" parent="1" source="RYKOZWi8mXVpuBgU3QgM-57" target="zuxBCQ1KaA-TVjjdggDC-1" edge="1">
          <mxGeometry width="50" height="50" relative="1" as="geometry">
            <mxPoint x="340" y="181.75" as="sourcePoint" />
            <mxPoint x="390" y="131.75" as="targetPoint" />
          </mxGeometry>
        </mxCell>
        <mxCell id="RYKOZWi8mXVpuBgU3QgM-66" value="documenta" style="shape=rhombus;perimeter=rhombusPerimeter;whiteSpace=wrap;html=1;align=center;" parent="1" vertex="1">
          <mxGeometry x="262.25" y="305" width="95" height="40" as="geometry" />
        </mxCell>
        <mxCell id="RYKOZWi8mXVpuBgU3QgM-67" value="scrive" style="shape=rhombus;perimeter=rhombusPerimeter;whiteSpace=wrap;html=1;align=center;" parent="1" vertex="1">
          <mxGeometry x="162" y="305" width="95" height="40" as="geometry" />
        </mxCell>
        <mxCell id="RYKOZWi8mXVpuBgU3QgM-76" value="" style="endArrow=none;html=1;rounded=0;exitX=0.5;exitY=0;exitDx=0;exitDy=0;" parent="1" source="RYKOZWi8mXVpuBgU3QgM-67" edge="1">
          <mxGeometry width="50" height="50" relative="1" as="geometry">
            <mxPoint x="210" y="300" as="sourcePoint" />
            <mxPoint x="210" y="260" as="targetPoint" />
          </mxGeometry>
        </mxCell>
        <mxCell id="RYKOZWi8mXVpuBgU3QgM-77" value="" style="endArrow=none;html=1;rounded=0;exitX=1;exitY=0.333;exitDx=0;exitDy=0;exitPerimeter=0;" parent="1" source="zuxBCQ1KaA-TVjjdggDC-8" edge="1">
          <mxGeometry width="50" height="50" relative="1" as="geometry">
            <mxPoint x="160" y="310" as="sourcePoint" />
            <mxPoint x="210" y="260" as="targetPoint" />
          </mxGeometry>
        </mxCell>
        <mxCell id="RYKOZWi8mXVpuBgU3QgM-78" value="" style="endArrow=none;html=1;rounded=0;entryX=0.081;entryY=0.008;entryDx=0;entryDy=0;entryPerimeter=0;exitX=0.5;exitY=1;exitDx=0;exitDy=0;" parent="1" source="RYKOZWi8mXVpuBgU3QgM-67" target="RYKOZWi8mXVpuBgU3QgM-1" edge="1">
          <mxGeometry width="50" height="50" relative="1" as="geometry">
            <mxPoint x="160" y="400" as="sourcePoint" />
            <mxPoint x="210" y="350" as="targetPoint" />
          </mxGeometry>
        </mxCell>
        <mxCell id="RYKOZWi8mXVpuBgU3QgM-80" value="" style="endArrow=none;html=1;rounded=0;entryX=0.913;entryY=0.009;entryDx=0;entryDy=0;entryPerimeter=0;exitX=0.5;exitY=1;exitDx=0;exitDy=0;" parent="1" target="RYKOZWi8mXVpuBgU3QgM-1" edge="1">
          <mxGeometry width="50" height="50" relative="1" as="geometry">
            <mxPoint x="309.25" y="345.22" as="sourcePoint" />
            <mxPoint x="310.25" y="380.22" as="targetPoint" />
          </mxGeometry>
        </mxCell>
        <mxCell id="RYKOZWi8mXVpuBgU3QgM-81" value="" style="endArrow=none;html=1;rounded=0;exitX=0.5;exitY=0;exitDx=0;exitDy=0;" parent="1" source="RYKOZWi8mXVpuBgU3QgM-66" edge="1">
          <mxGeometry width="50" height="50" relative="1" as="geometry">
            <mxPoint x="310" y="290" as="sourcePoint" />
            <mxPoint x="310" y="220" as="targetPoint" />
          </mxGeometry>
        </mxCell>
        <mxCell id="RYKOZWi8mXVpuBgU3QgM-82" value="" style="endArrow=none;html=1;rounded=0;entryX=0.001;entryY=0.972;entryDx=0;entryDy=0;entryPerimeter=0;" parent="1" target="zuxBCQ1KaA-TVjjdggDC-1" edge="1">
          <mxGeometry width="50" height="50" relative="1" as="geometry">
            <mxPoint x="310" y="220" as="sourcePoint" />
            <mxPoint x="470" y="220" as="targetPoint" />
          </mxGeometry>
        </mxCell>
      </root>
    </mxGraphModel>
  </diagram>
</mxfile>
